HIERARCHY
ROOT Bip01
{
  OFFSET 15.7446 31.5610 57.6474
  CHANNELS 6 Xposition Yposition Zposition Zrotation Xrotation Yrotation
  JOINT Bip01_Footsteps
  {
    OFFSET 53.2821 -0.0001 8.1953
    CHANNELS 6 Xposition Yposition Zposition Zrotation Xrotation Yrotation
    End Site
    {
      OFFSET 0 0 0
    }
  }
  JOINT b_Hips
  {
    OFFSET 0.0000 0.0000 0.0000
    CHANNELS 6 Xposition Yposition Zposition Zrotation Xrotation Yrotation
    JOINT b_Spine
    {
      OFFSET 10.4409 -1.6220 0.0000
      CHANNELS 6 Xposition Yposition Zposition Zrotation Xrotation Yrotation
      JOINT b_Spine1
      {
        OFFSET 8.8514 -0.0090 0.0000
        CHANNELS 6 Xposition Yposition Zposition Zrotation Xrotation Yrotation
        JOINT b_Spine2
        {
          OFFSET 11.3035 -0.0088 -0.0000
          CHANNELS 6 Xposition Yposition Zposition Zrotation Xrotation Yrotation
          JOINT b_Spine3
          {
            OFFSET 11.0297 -0.0113 0.0000
            CHANNELS 6 Xposition Yposition Zposition Zrotation Xrotation Yrotation
            JOINT b__Neck
            {
              OFFSET 14.9480 -3.1935 0.0000
              CHANNELS 6 Xposition Yposition Zposition Zrotation Xrotation Yrotation
              JOINT b__Neck1
              {
                OFFSET 5.4958 -0.0043 -0.0000
                CHANNELS 6 Xposition Yposition Zposition Zrotation Xrotation Yrotation
                JOINT b__Neck2
                {
                  OFFSET 5.5266 -0.0049 0.0000
                  CHANNELS 6 Xposition Yposition Zposition Zrotation Xrotation Yrotation
                  JOINT b_Head
                  {
                    OFFSET 6.1093 -0.0000 -0.0000
                    CHANNELS 6 Xposition Yposition Zposition Zrotation Xrotation Yrotation
                    JOINT Bip01_HeadNub
                    {
                      OFFSET 28.6688 -0.0000 -0.0000
                      CHANNELS 6 Xposition Yposition Zposition Zrotation Xrotation Yrotation
                      End Site
                      {
                        OFFSET 0 0 0
                      }
                    }
                    JOINT Dog_Jaw
                    {
                      OFFSET 0.6075 2.3575 -0.0000
                      CHANNELS 6 Xposition Yposition Zposition Zrotation Xrotation Yrotation
                      End Site
                      {
                        OFFSET 0 0 0
                      }
                    }
                  }
                }
              }
            }
            JOINT b_LeftClav
            {
              OFFSET 10.4683 2.1257 3.5190
              CHANNELS 6 Xposition Yposition Zposition Zrotation Xrotation Yrotation
              JOINT b_LeftArm
              {
                OFFSET 7.3453 0.0000 0.0000
                CHANNELS 6 Xposition Yposition Zposition Zrotation Xrotation Yrotation
                JOINT b_LeftForeArm
                {
                  OFFSET 23.3863 -0.0000 0.0000
                  CHANNELS 6 Xposition Yposition Zposition Zrotation Xrotation Yrotation
                  JOINT b_LeftHand
                  {
                    OFFSET 21.5040 -0.0000 0.0000
                    CHANNELS 6 Xposition Yposition Zposition Zrotation Xrotation Yrotation
                    JOINT b__LeftFinger
                    {
                      OFFSET 1.5926 6.2126 -0.0138
                      CHANNELS 6 Xposition Yposition Zposition Zrotation Xrotation Yrotation
                      JOINT Bip01_L_Finger0Nub
                      {
                        OFFSET 23.3657 0.0000 0.0000
                        CHANNELS 6 Xposition Yposition Zposition Zrotation Xrotation Yrotation
                        End Site
                        {
                          OFFSET 0 0 0
                        }
                      }
                    }
                  }
                }
                JOINT Dog_LeftArmor002
                {
                  OFFSET 4.2035 4.4457 12.7354
                  CHANNELS 6 Xposition Yposition Zposition Zrotation Xrotation Yrotation
                  End Site
                  {
                    OFFSET 0 0 0
                  }
                }
              }
            }
            JOINT b_RightClav
            {
              OFFSET 10.4683 2.1257 -3.5189
              CHANNELS 6 Xposition Yposition Zposition Zrotation Xrotation Yrotation
              JOINT b_RightArm
              {
                OFFSET 7.3453 0.0000 -0.0000
                CHANNELS 6 Xposition Yposition Zposition Zrotation Xrotation Yrotation
                JOINT b_RightForeArm
                {
                  OFFSET 23.3863 0.0000 -0.0000
                  CHANNELS 6 Xposition Yposition Zposition Zrotation Xrotation Yrotation
                  JOINT b_RightHand
                  {
                    OFFSET 21.5040 0.0000 0.0000
                    CHANNELS 6 Xposition Yposition Zposition Zrotation Xrotation Yrotation
                    JOINT b_RightFinger
                    {
                      OFFSET 1.5926 6.2126 0.0138
                      CHANNELS 6 Xposition Yposition Zposition Zrotation Xrotation Yrotation
                      JOINT Bip01_R_Finger0Nub
                      {
                        OFFSET 23.3657 -0.0000 0.0000
                        CHANNELS 6 Xposition Yposition Zposition Zrotation Xrotation Yrotation
                        End Site
                        {
                          OFFSET 0 0 0
                        }
                      }
                    }
                  }
                }
                JOINT Dog_RightArmor002
                {
                  OFFSET 4.2034 4.4457 -12.7351
                  CHANNELS 6 Xposition Yposition Zposition Zrotation Xrotation Yrotation
                  End Site
                  {
                    OFFSET 0 0 0
                  }
                }
              }
            }
          }
        }
      }
    }
    JOINT b_Tail001
    {
      OFFSET -2.9242 2.0655 -1.4674
      CHANNELS 6 Xposition Yposition Zposition Zrotation Xrotation Yrotation
      JOINT b_Tail002
      {
        OFFSET 4.2212 0.0000 -0.0000
        CHANNELS 6 Xposition Yposition Zposition Zrotation Xrotation Yrotation
        JOINT b_Tail003
        {
          OFFSET 4.9750 0.0000 -0.0000
          CHANNELS 6 Xposition Yposition Zposition Zrotation Xrotation Yrotation
          JOINT b_Tail004
          {
            OFFSET 4.7171 -0.0000 0.0000
            CHANNELS 6 Xposition Yposition Zposition Zrotation Xrotation Yrotation
            JOINT b_Tail005
            {
              OFFSET 9.7173 -0.0000 -0.0001
              CHANNELS 6 Xposition Yposition Zposition Zrotation Xrotation Yrotation
              JOINT b_Tail006
              {
                OFFSET 8.2617 0.0001 0.0000
                CHANNELS 6 Xposition Yposition Zposition Zrotation Xrotation Yrotation
                JOINT b_Tail007
                {
                  OFFSET 9.7599 -0.0001 0.0000
                  CHANNELS 6 Xposition Yposition Zposition Zrotation Xrotation Yrotation
                  JOINT b_Tail008
                  {
                    OFFSET 11.1530 0.0000 -0.0000
                    CHANNELS 6 Xposition Yposition Zposition Zrotation Xrotation Yrotation
                    JOINT b_Tail009
                    {
                      OFFSET 10.3039 0.0000 0.0000
                      CHANNELS 6 Xposition Yposition Zposition Zrotation Xrotation Yrotation
                      End Site
                      {
                        OFFSET 0 0 0
                      }
                    }
                  }
                }
              }
            }
          }
        }
      }
    }
    JOINT Dog_LeftTail001
    {
      OFFSET -11.9878 -1.7857 10.1900
      CHANNELS 6 Xposition Yposition Zposition Zrotation Xrotation Yrotation
      JOINT Dog_LeftTail002
      {
        OFFSET 8.4424 0.0000 0.0000
        CHANNELS 6 Xposition Yposition Zposition Zrotation Xrotation Yrotation
        JOINT Dog_LeftTail003
        {
          OFFSET 9.9501 0.0000 -0.0000
          CHANNELS 6 Xposition Yposition Zposition Zrotation Xrotation Yrotation
          JOINT Dog_LeftTail004
          {
            OFFSET 9.4342 0.0000 -0.0000
            CHANNELS 6 Xposition Yposition Zposition Zrotation Xrotation Yrotation
            JOINT Dog_LeftTail005
            {
              OFFSET 9.7173 0.0001 0.0001
              CHANNELS 6 Xposition Yposition Zposition Zrotation Xrotation Yrotation
              JOINT Dog_LeftTail006
              {
                OFFSET 8.2618 -0.0000 -0.0000
                CHANNELS 6 Xposition Yposition Zposition Zrotation Xrotation Yrotation
                JOINT Dog_LeftTail007
                {
                  OFFSET 9.7599 0.0000 0.0000
                  CHANNELS 6 Xposition Yposition Zposition Zrotation Xrotation Yrotation
                  JOINT Dog_LeftTail008
                  {
                    OFFSET 11.1529 -0.0001 -0.0001
                    CHANNELS 6 Xposition Yposition Zposition Zrotation Xrotation Yrotation
                    JOINT Dog_LeftTail009
                    {
                      OFFSET 10.3039 -0.0000 0.0000
                      CHANNELS 6 Xposition Yposition Zposition Zrotation Xrotation Yrotation
                      End Site
                      {
                        OFFSET 0 0 0
                      }
                    }
                  }
                }
              }
            }
          }
        }
      }
    }
    JOINT b_LeftLegUpper
    {
      OFFSET -0.0000 0.0000 9.9422
      CHANNELS 6 Xposition Yposition Zposition Zrotation Xrotation Yrotation
      JOINT b_LeftLeg
      {
        OFFSET 25.9795 0.0000 0.0000
        CHANNELS 6 Xposition Yposition Zposition Zrotation Xrotation Yrotation
        JOINT b_LeftLeg1
        {
          OFFSET 21.2087 0.0000 -0.0000
          CHANNELS 6 Xposition Yposition Zposition Zrotation Xrotation Yrotation
          JOINT b_LeftAnkle
          {
            OFFSET 10.4341 -0.0000 0.0000
            CHANNELS 6 Xposition Yposition Zposition Zrotation Xrotation Yrotation
            JOINT b_LeftToe
            {
              OFFSET 5.6676 6.5983 0.0000
              CHANNELS 6 Xposition Yposition Zposition Zrotation Xrotation Yrotation
              JOINT Bip01_L_Toe0Nub
              {
                OFFSET 8.6279 0.0000 -0.0000
                CHANNELS 6 Xposition Yposition Zposition Zrotation Xrotation Yrotation
                End Site
                {
                  OFFSET 0 0 0
                }
              }
            }
            JOINT b_LeftToe002
            {
              OFFSET 5.6741 -2.3619 -0.5306
              CHANNELS 6 Xposition Yposition Zposition Zrotation Xrotation Yrotation
              End Site
              {
                OFFSET 0 0 0
              }
            }
          }
        }
      }
      JOINT Dog_LeftArmor001
      {
        OFFSET -2.6287 -3.4254 -3.1462
        CHANNELS 6 Xposition Yposition Zposition Zrotation Xrotation Yrotation
        End Site
        {
          OFFSET 0 0 0
        }
      }
    }
    JOINT b_RightLegUpper
    {
      OFFSET 0.0000 -0.0000 -9.9422
      CHANNELS 6 Xposition Yposition Zposition Zrotation Xrotation Yrotation
      JOINT b_RightLeg
      {
        OFFSET 25.9795 0.0000 0.0000
        CHANNELS 6 Xposition Yposition Zposition Zrotation Xrotation Yrotation
        JOINT b_RightLeg1
        {
          OFFSET 21.2087 0.0000 0.0000
          CHANNELS 6 Xposition Yposition Zposition Zrotation Xrotation Yrotation
          JOINT b_RightAnkle
          {
            OFFSET 10.4341 -0.0000 -0.0000
            CHANNELS 6 Xposition Yposition Zposition Zrotation Xrotation Yrotation
            JOINT b_RightToe
            {
              OFFSET 5.6676 6.5983 -0.0000
              CHANNELS 6 Xposition Yposition Zposition Zrotation Xrotation Yrotation
              JOINT Bip01_R_Toe0Nub
              {
                OFFSET 8.6279 -0.0000 0.0000
                CHANNELS 6 Xposition Yposition Zposition Zrotation Xrotation Yrotation
                End Site
                {
                  OFFSET 0 0 0
                }
              }
            }
            JOINT b_RightToe002
            {
              OFFSET 5.6741 -2.3620 0.5304
              CHANNELS 6 Xposition Yposition Zposition Zrotation Xrotation Yrotation
              End Site
              {
                OFFSET 0 0 0
              }
            }
          }
        }
      }
      JOINT Dog_RightArmor001
      {
        OFFSET -2.6288 -3.4254 3.1460
        CHANNELS 6 Xposition Yposition Zposition Zrotation Xrotation Yrotation
        End Site
        {
          OFFSET 0 0 0
        }
      }
    }
  }
}
MOTION
Frames: 4
Frame Time: 0.00833333
148.697 44.7301 364.067 -72.4077 38.8037 -6.59638 53.2821 -6.35e-05 8.19533 -90 -81.2558 -180 0 0 0 -89.9999 -4.1675e-14 -90 10.4409 -1.622 1.78e-05 -8.92792 -10.1791 -2.63537 8.8514 -0.0089989 0 2.44482 -3.00625 8.065 11.3035 -0.0087814 0 -3.88877 21.835 8.43812 11.0297 -0.0113029 5.68434e-14 -0.318924 12.057 -0.905897 14.948 -3.19349 8.6e-06 -13.7165 -13.2542 -3.28113 5.49578 -0.0042877 0 2.12777 -15.7198 0.772337 5.52657 -0.0048637 0 5.08994 0.320501 3.26129 6.10934 -2.84217e-14 0 52.9859 4.01275 9.72638 28.6688 -1.42109e-14 0 -2.78299e-15 0 -3.18055e-15 0.607494 2.35752 -7.6e-06 -156.427 -0.000147608 180 10.4683 2.1257 3.51896 -179.045 1.13147 -90.9461 7.34534 0 1.9e-06 -17.5968 -71.9298 83.2622 23.3863 -1.9e-06 1e-06 7.16257 -0.76425 -1.15545 21.504 0 5.68434e-14 -63.2464 -5.00909 3.14134 1.59262 6.21256 -0.0138378 -1.72109 -16.4006 -14.6867 23.3657 0 1e-06 3.18055e-15 -3.18055e-15 -3.18055e-15 4.20345 4.44573 12.7354 172.377 0.21838 -87.1877 10.4683 2.12572 -3.51895 147.782 27.5574 131.419 7.34534 1.42109e-14 -1.9e-06 12.6889 61.8138 -111.396 23.3863 1.9e-06 0 -37.7077 3.18055e-15 -6.36111e-15 21.504 3.8e-06 1e-06 -98.6263 -44.0331 5.96467 1.59262 6.21257 0.0138388 -20.2899 1.59287 5.50981 23.3657 0 1e-06 180 1.27222e-14 6.36111e-15 4.20337 4.4457 -12.7351 172.377 -0.218352 87.1876 -2.9242 2.06553 -1.46745 173.233 -6.02857 -22.026 4.22117 3.815e-05 -5.7e-06 -6.66358 -6.92098 3.52343 4.97505 3.8e-06 -6.7e-06 166.909 -80.4844 166.446 4.7171 -1.145e-05 2.86e-05 -0 -6.36111e-15 -0 9.71734 -4.2e-05 -5.72e-05 3.18055e-15 3.18055e-15 -3.18055e-15 8.26175 8.01e-05 5.7e-06 -3.18055e-15 0 -0 9.75986 -6.48e-05 2.86e-05 -1.76556e-31 -3.18055e-15 -3.18055e-15 11.153 2.67e-05 -2.1e-05 -1.76556e-31 -3.18055e-15 -3.18055e-15 10.3039 1.14e-05 4.2e-05 -3.18055e-15 -3.18055e-15 -3.18055e-15 -11.9878 -1.78568 10.19 170.606 3.62573 1.11034 8.44238 1.53e-05 4.2e-05 1.59028e-15 7.95139e-16 3.18055e-15 9.95005 7.6e-06 -2.86e-05 -1.32417e-31 -2.38542e-15 -3.18055e-15 9.43418 7.10543e-15 -4.58e-05 -0 0 3.18055e-15 9.71733 6.87e-05 0.0001106 -1.59028e-15 -1.59028e-15 3.18055e-15 8.26175 -2.29e-05 -4.77e-05 3.18055e-15 2.38542e-15 1.27222e-14 9.75994 2.86e-05 3.05e-05 1.59028e-15 0 1.27222e-14 11.1529 -7.25e-05 -5.91e-05 -1.59028e-15 0 1.27222e-14 10.3039 -7.6e-06 0 -3.18055e-15 1.59028e-15 -3.18055e-15 -1.14e-05 1.53e-05 9.94222 -101.019 10.522 -166.747 25.9795 1e-06 0 -65.0303 0.276727 -1.17868 21.2087 1.9e-06 -1e-06 74.9278 -2.09903 4.72968 10.4341 -1.9e-06 1e-06 -12.3649 -2.64426 4.46413 5.66763 6.59832 2.84217e-14 80.3747 -5.76604 3.37683 8.62785 0 0 -180 -1.11717e-13 1.11319e-14 5.67414 -2.36194 -0.530567 -75.8081 4.38708 5.33411 -2.62874 -3.42539 -3.14618 29.7499 1.82752 90.2264 1.53e-05 -1.53e-05 -9.94222 -117.804 -22.9355 171.914 25.9795 -1.42109e-14 1e-06 -76.8921 -1.78442 1.88768 21.2087 1.42109e-14 1.9e-06 114.318 -4.89206 25.9326 10.4341 -1.9e-06 -1e-06 -15.8973 -10.8504 -9.77637 5.66763 6.59831 0 78.3934 -7.4756 6.6232 8.62785 2.84217e-14 0 3.18055e-15 3.18055e-15 -0 5.67412 -2.36198 0.530355 -75.808 -4.38692 -5.33418 -2.62878 -3.42545 3.14601 29.7498 -1.82753 -90.2266
147.44 44.97 364.766 -70.6904 39.4459 -7.11685 53.2821 -6.35e-05 8.19533 -90 -81.2558 -180 0 0 0 -89.9999 -4.1675e-14 -90 10.4409 -1.622 1.78e-05 -9.60282 -9.79613 -2.43681 8.8514 -0.0089989 0 1.70258 -2.90418 8.05374 11.3035 -0.0087814 0 -3.908 21.1866 8.08994 11.0297 -0.0113029 0 0.818813 11.6578 -1.33155 14.948 -3.19349 8.6e-06 -12.2069 -13.2147 -3.1099 5.49578 -0.0042877 -5.68434e-14 2.11958 -15.4477 0.785087 5.52657 -0.0048637 0 5.10485 0.466992 3.20365 6.10934 -7.10543e-15 0 52.8448 3.96009 9.84347 28.6688 0 0 2.78299e-15 1.59028e-15 -0 0.607494 2.35752 -7.6e-06 -156.427 -0.000147608 180 10.4683 2.1257 3.51896 -179.371 -0.143307 -91.7231 7.34534 0 1.9e-06 -17.4318 -72.3801 85.0968 23.3863 -1.9e-06 1e-06 3.68837 -0.692822 -1.19964 21.504 0 0 -52.1518 -4.31246 4.04567 1.59262 6.21256 -0.0138378 -2.58192 -17.1255 -15.0766 23.3657 -2.84217e-14 1e-06 -3.53113e-31 -6.36111e-15 -3.18055e-15 4.20345 4.44573 12.7354 172.377 0.21838 -87.1877 10.4683 2.12572 -3.51895 147.163 28.4553 132.6 7.34534 0 -1.9e-06 1.88785 61.6186 -103.262 23.3863 1.9e-06 5.68434e-14 -37.56 3.18055e-15 -0 21.504 3.8e-06 1e-06 -101.419 -45.9772 4.94231 1.59262 6.21257 0.0138388 -21.4321 -0.634152 5.71595 23.3657 0 1e-06 180 -4.77083e-15 3.18055e-15 4.20337 4.4457 -12.7351 172.377 -0.218352 87.1876 -2.9242 2.06553 -1.46745 173.97 -6.2343 -19.8817 4.22117 3.815e-05 -5.7e-06 -6.82198 -7.03907 3.59466 4.97505 3.8e-06 -6.7e-06 160.102 -79.7477 160.187 4.7171 -1.145e-05 2.86e-05 3.18055e-15 3.18055e-15 -0 9.71734 -4.2e-05 -5.72e-05 3.18055e-15 3.18055e-15 6.36111e-15 8.26175 8.01e-05 5.7e-06 -3.53113e-31 -6.36111e-15 -3.18055e-15 9.75986 -6.48e-05 2.86e-05 -6.36111e-15 -3.18055e-15 -6.36111e-15 11.153 2.67e-05 -2.1e-05 3.18055e-15 9.54166e-15 -3.18055e-15 10.3039 1.14e-05 4.2e-05 -0 -9.54166e-15 -0 -11.9878 -1.78568 10.19 170.606 3.62573 1.11034 8.44238 1.53e-05 4.2e-05 1.59028e-15 3.97569e-15 3.18055e-15 9.95005 7.6e-06 -2.86e-05 1.59028e-15 -1.59028e-15 6.36111e-15 9.43418 3.55271e-15 -4.58e-05 -4.41391e-32 7.95139e-16 3.18055e-15 9.71733 6.87e-05 0.0001106 1.59028e-15 0 -0 8.26175 -2.29e-05 -4.77e-05 -0 -7.95139e-16 -0 9.75994 2.86e-05 3.05e-05 -0 -7.95139e-16 -0 11.1529 -7.25e-05 -5.91e-05 -1.59028e-15 -7.95139e-16 6.36111e-15 10.3039 -7.6e-06 5.68434e-14 1.59028e-15 1.59028e-15 9.54166e-15 -1.14e-05 1.53e-05 9.94222 -99.0615 11.6539 -167.208 25.9795 1e-06 0 -61.5463 0.204577 -1.19332 21.2087 1.9e-06 -1e-06 70.5714 -2.91483 4.13746 10.4341 -1.9e-06 1e-06 -11.8675 -2.60537 4.48691 5.66763 6.59832 0 81.5387 -3.21698 1.99085 8.62785 0 0 -180 -2.40927e-13 3.18055e-15 5.67414 -2.36194 -0.530567 -75.8081 4.38708 5.33411 -2.62874 -3.42539 -3.14618 29.7499 1.82752 90.2264 1.53e-05 -1.53e-05 -9.94222 -116.372 -22.1951 171.819 25.9795 2.84217e-14 1e-06 -76.212 -1.76189 1.90873 21.2087 -2.84217e-14 1.9e-06 113.561 -4.80163 26.0038 10.4341 -1.9e-06 -1e-06 -15.127 -11.1093 -10.1094 5.66763 6.59831 5.68434e-14 78.2916 -7.50876 6.68747 8.62785 0 0 -6.36111e-15 0 -3.18055e-15 5.67412 -2.36198 0.530356 -75.808 -4.38692 -5.33418 -2.62878 -3.42545 3.14601 29.7498 -1.82753 -90.2266
146.125 45.263 365.471 -68.9122 40.1262 -7.59139 53.2821 -6.35e-05 8.19533 -90 -81.2558 -180 0 0 0 -89.9999 -4.1675e-14 -90 10.4409 -1.622 1.78e-05 -10.2884 -9.36797 -2.25592 8.8514 -0.0089989 0 0.863547 -2.67099 7.84458 11.3035 -0.0087814 5.68434e-14 -3.92094 20.4041 7.58078 11.0297 -0.0113029 -5.68434e-14 1.87408 11.1521 -1.57749 14.948 -3.19349 8.6e-06 -10.6542 -13.24 -2.61316 5.49578 -0.0042877 5.68434e-14 2.08485 -15.1684 0.785772 5.52657 -0.0048637 0 5.12467 0.539629 3.16158 6.10934 0 5.68434e-14 52.7651 3.90281 9.91576 28.6688 0 0 -2.38542e-15 -6.36111e-15 -0 0.607494 2.35752 -7.6e-06 -156.427 -0.000147608 180 10.4683 2.1257 3.51896 -179.823 -1.7444 -93.841 7.34534 0 1.9e-06 -10.3162 -72.6359 94.5276 23.3863 -1.9e-06 1e-06 -1.73827 -0.576255 -1.25978 21.504 -2.84217e-14 0 -38.9717 -3.27661 4.9218 1.59262 6.21256 -0.0138378 -3.88389 -14.432 -14.8973 23.3657 0 1e-06 9.54166e-15 -6.36111e-15 3.18055e-15 4.20345 4.44573 12.7354 172.377 0.21838 -87.1877 10.4683 2.12572 -3.51895 146.597 29.3734 133.556 7.34534 0 -1.9e-06 -7.56484 60.5235 -96.4157 23.3863 1.9e-06 0 -37.6887 -3.18055e-15 3.18055e-15 21.504 3.8e-06 1e-06 -103.906 -48.1711 3.93883 1.59262 6.21257 0.0138388 -22.1497 -2.3826 5.77284 23.3657 -1.42109e-14 1e-06 180 2.22639e-14 -0 4.20337 4.4457 -12.7351 172.377 -0.218352 87.1876 -2.9242 2.06553 -1.46745 175.157 -6.28844 -18.0426 4.22117 3.815e-05 -5.7e-06 -6.96052 -7.12955 3.74827 4.97505 3.8e-06 -6.7e-06 153.016 -79.039 153.415 4.7171 -1.145e-05 2.86e-05 3.18055e-15 -6.36111e-15 3.18055e-15 9.71734 -4.2e-05 -5.72e-05 3.18055e-15 0 -0 8.26175 8.01e-05 5.7e-06 3.18055e-15 -3.18055e-15 -3.18055e-15 9.75986 -6.48e-05 2.86e-05 1.76556e-31 3.18055e-15 -3.18055e-15 11.153 2.67e-05 -2.1e-05 -3.18055e-15 3.18055e-15 -6.36111e-15 10.3039 1.14e-05 4.2e-05 -3.18055e-15 6.36111e-15 -0 -11.9878 -1.78568 10.19 170.606 3.62573 1.11034 8.44238 1.53e-05 4.2e-05 -1.59028e-15 7.95139e-16 -9.54166e-15 9.95005 7.6e-06 -2.86e-05 1.59028e-15 1.59028e-15 -3.18055e-15 9.43418 -7.10543e-15 -4.58e-05 1.59028e-15 0 -6.36111e-15 9.71733 6.87e-05 0.0001106 3.18055e-15 1.59028e-15 -6.36111e-15 8.26175 -2.29e-05 -4.77e-05 1.59028e-15 1.59028e-15 -3.18055e-15 9.75994 2.86e-05 3.05e-05 3.18055e-15 0 -0 11.1529 -7.25e-05 -5.91e-05 3.18055e-15 -7.95139e-16 -3.18055e-15 10.3039 -7.6e-06 0 -1.59028e-15 3.18055e-15 -0 -1.14e-05 1.53e-05 9.94222 -97.251 12.9337 -167.703 25.9795 1e-06 0 -57.7061 0.124185 -1.20434 21.2087 1.9e-06 -1e-06 65.3804 -3.92705 3.859 10.4341 -1.9e-06 1e-06 -11.98 -2.61418 4.48178 5.66763 6.59832 0 83.3866 0.439411 0.158603 8.62785 0 0 -180 9.54166e-14 -3.18055e-15 5.67414 -2.36194 -0.530567 -75.8081 4.38708 5.33411 -2.62874 -3.42539 -3.14618 29.7499 1.82752 90.2264 1.53e-05 -1.53e-05 -9.94222 -115.005 -21.5003 171.615 25.9795 1.42109e-14 1e-06 -75.2263 -1.7288 1.93875 21.2087 -1.42109e-14 1.9e-06 112.457 -4.83271 26.1568 10.4341 -1.9e-06 -1e-06 -14.3092 -11.4534 -10.4654 5.66763 6.59831 5.68434e-14 78.1513 -7.40623 6.66449 8.62785 0 0 6.36111e-15 0 -6.36111e-15 5.67412 -2.36198 0.530355 -75.808 -4.38692 -5.33418 -2.62878 -3.42545 3.14601 29.7498 -1.82753 -90.2266
144.756 45.6073 366.182 -67.1949 40.8883 -8.06232 53.2821 -6.35e-05 8.19533 -90 -81.2558 -180 0 0 0 -89.9999 -4.1675e-14 -90 10.4409 -1.622 1.78e-05 -10.8489 -8.87723 -2.05473 8.8514 -0.0089989 5.68434e-14 -0.0781193 -2.20906 7.37068 11.3035 -0.0087814 0 -3.94191 19.6263 6.87943 11.0297 -0.0113029 0 2.9151 10.5518 -1.59184 14.948 -3.19349 8.6e-06 -9.13966 -12.9241 -1.76644 5.49578 -0.0042877 0 2.02022 -15.5491 0.738204 5.52657 -0.0048637 0 5.12848 0.597915 3.1101 6.10934 -7.10543e-15 0 52.6393 3.79604 9.9732 28.6688 0 0 1.03368e-14 1.59028e-15 -0 0.607494 2.35752 -7.6e-06 -156.427 -0.000147608 180 10.4683 2.1257 3.51896 179.844 -3.29052 -96.6261 7.34534 2.84217e-14 1.9e-06 2.55496 -72.2738 110.129 23.3863 -1.9e-06 1e-06 -8.64521 -0.420556 -1.31993 21.504 -2.84217e-14 5.68434e-14 -24.8855 -1.97798 5.57079 1.59262 6.21256 -0.0138378 -5.42827 -10.9627 -14.0845 23.3657 0 1e-06 3.18055e-15 -3.18055e-15 -6.36111e-15 4.20345 4.44573 12.7354 172.377 0.21838 -87.1877 10.4683 2.12572 -3.51895 146.132 30.435 134.264 7.34534 0 -1.9e-06 -14.1152 58.8549 -92.1678 23.3863 1.9e-06 5.68434e-14 -38.476 3.18055e-15 -4.77083e-15 21.504 3.8e-06 1e-06 -105.53 -49.5809 3.78089 1.59262 6.21257 0.0138388 -21.8127 -2.69183 5.83815 23.3657 0 1e-06 180 3.18055e-15 -6.36111e-15 4.20337 4.4457 -12.7351 172.377 -0.218352 87.1876 -2.9242 2.06553 -1.46745 176.901 -6.07013 -16.3726 4.22117 3.815e-05 -5.7e-06 -6.9885 -7.24029 4.02755 4.97505 3.8e-06 -6.7e-06 146.012 -78.1473 145.932 4.7171 -1.145e-05 2.86e-05 -3.18055e-15 3.18055e-15 3.18055e-15 9.71734 -4.2e-05 -5.72e-05 -3.18055e-15 0 -3.18055e-15 8.26175 8.01e-05 5.7e-06 -3.18055e-15 -3.18055e-15 -0 9.75986 -6.48e-05 2.86e-05 -6.36111e-15 0 -0 11.153 2.67e-05 -2.1e-05 -3.18055e-15 -3.18055e-15 -0 10.3039 1.14e-05 4.2e-05 -6.36111e-15 3.18055e-15 3.18055e-15 -11.9878 -1.78568 10.19 170.606 3.62573 1.11034 8.44238 1.53e-05 4.2e-05 -8.82781e-32 1.59028e-15 3.18055e-15 9.95005 7.6e-06 -2.86e-05 1.59028e-15 2.38542e-15 3.18055e-15 9.43418 -7.10543e-15 -4.58e-05 -1.59028e-15 -7.95139e-16 -3.18055e-15 9.71733 6.87e-05 0.0001106 -0 0 -0 8.26175 -2.29e-05 -4.77e-05 1.59028e-15 0 -3.18055e-15 9.75994 2.86e-05 3.05e-05 -1.59028e-15 0 6.36111e-15 11.1529 -7.25e-05 -5.91e-05 8.82781e-32 -1.59028e-15 3.18055e-15 10.3039 -7.6e-06 0 -1.59028e-15 0 6.36111e-15 -1.14e-05 1.53e-05 9.94222 -95.5578 14.1959 -168.205 25.9795 1e-06 0 -54.0205 0.0465003 -1.20983 21.2087 1.9e-06 -1e-06 59.9676 -4.98897 3.74182 10.4341 -1.9e-06 1e-06 -12.6784 -2.66867 4.4496 5.66763 6.59832 2.84217e-14 85.2249 0.813798 0.148856 8.62785 0 0 -180 -1.19072e-13 -0 5.67414 -2.36194 -0.530567 -75.8081 4.38708 5.33411 -2.62874 -3.42539 -3.14618 29.7499 1.82752 90.2264 1.53e-05 -1.53e-05 -9.94222 -113.511 -20.7754 171.49 25.9795 0 1e-06 -73.8293 -1.68102 1.98031 21.2087 -2.84217e-14 1.9e-06 111.047 -5.08276 26.2401 10.4341 -1.9e-06 -1e-06 -13.5109 -11.8832 -10.7664 5.66763 6.59831 -5.68434e-14 77.9278 -7.11019 6.49078 8.62785 0 -5.68434e-14 -6.36111e-15 -3.18055e-15 -0 5.67412 -2.36198 0.530355 -75.808 -4.38692 -5.33418 -2.62878 -3.42545 3.14601 29.7498 -1.82753 -90.2266
